#!OML:ASF C:\Vicon Data\Big\jianyuan-11\jianyuan\Session 1\male.ASF
:FULLY-SPECIFIED
:DEGREES
84
root -9.467137 16.200404 -17.180556 -10.811984 -24.394271 9.587292
lowerback 3.835865 3.962262 -1.652589 
upperback 6.270772 5.598002 -0.713743 
thorax 4.255860 2.868690 0.185587 
lowerneck -10.936187 -10.018743 -12.115222 
upperneck 22.836777 -13.842600 12.233482 
head 10.904931 -5.877258 4.560846 
rclavicle 0.000000 0.000000 
rhumerus -32.953440 -20.656913 -83.694263 
rradius 48.143493 
rwrist -7.162580 
rhand -16.015739 0.178191 
rfingers 0.000000 
rthumb 10.184912 -29.555233 
lclavicle 0.000000 0.000000 
lhumerus -54.748133 56.018080 42.862627 
lradius 17.877752 
lwrist -61.012098 
lhand -11.386440 -10.069054 
lfingers 0.000000 
lthumb 14.648146 19.393273 
rfemur 5.964964 5.847706 32.030459 
rtibia 28.818044 
rfoot -9.740394 -4.376155 
rtoes 19.019644 
lfemur -21.555427 -12.220223 -16.777613 
ltibia 38.225671 
lfoot -14.917747 4.300288 
ltoes -8.159630 
85
root -9.500566 16.211615 -17.098439 -10.759316 -24.942876 9.586705
lowerback 3.733231 4.041107 -1.507268 
upperback 6.257267 5.703777 -0.735961 
thorax 4.313884 2.925926 0.090628 
lowerneck -10.960347 -9.958941 -12.123094 
upperneck 22.805325 -13.760168 12.254207 
head 10.888182 -5.840060 4.581721 
rclavicle 0.000000 0.000000 
rhumerus -32.826993 -20.372433 -83.907132 
rradius 48.259126 
rwrist -7.003123 
rhand -16.235240 0.327297 
rfingers 0.000000 
rthumb 9.973157 -29.416340 
lclavicle 0.000000 0.000000 
lhumerus -56.332675 56.168951 41.194936 
lradius 17.846281 
lwrist -61.433752 
lhand -11.628153 -9.951211 
lfingers 0.000000 
lthumb 14.415275 19.528166 
rfemur 6.510322 5.989205 32.065511 
rtibia 28.330627 
rfoot -9.455851 -4.327625 
rtoes 18.611666 
lfemur -21.513983 -12.076685 -16.774980 
ltibia 36.686181 
lfoot -14.649003 3.990273 
ltoes -7.032641 
86
root -9.535167 16.222576 -17.016765 -10.674279 -25.482157 9.561124
lowerback 3.664848 4.126266 -1.337217 
upperback 6.198784 5.813448 -0.767953 
thorax 4.309731 2.986041 -0.032630 
lowerneck -11.014938 -9.894697 -12.090796 
upperneck 22.847125 -13.672625 12.244143 
head 10.898078 -5.795650 4.586264 
rclavicle 0.000000 0.000000 
rhumerus -32.756493 -20.163184 -84.093067 
rradius 48.405498 
rwrist -6.949070 
rhand -16.300141 0.405216 
rfingers 0.000000 
rthumb 9.910585 -29.341482 
lclavicle 0.000000 0.000000 
lhumerus -57.921053 56.250193 39.496821 
lradius 17.854473 
lwrist -61.644572 
lhand -11.276443 -10.067629 
lfingers 0.000000 
lthumb 14.754156 19.387016 
rfemur 7.032183 6.137638 32.123376 
rtibia 27.851456 
rfoot -9.142848 -4.253541 
rtoes 18.591052 
lfemur -21.494289 -11.873226 -16.755254 
ltibia 35.122420 
lfoot -14.265251 3.642269 
ltoes -6.505628 
87
root -9.569189 16.235250 -16.935513 -10.651011 -25.913966 9.653973
lowerback 3.568937 4.192042 -1.327658 
upperback 6.181721 5.900415 -0.787844 
thorax 4.348197 3.028291 -0.051038 
lowerneck -11.086816 -9.860496 -12.045187 
upperneck 22.878351 -13.610586 12.153831 
head 10.903422 -5.771229 4.553367 
rclavicle 0.000000 0.000000 
rhumerus -32.650928 -19.947483 -84.207168 
rradius 48.594374 
rwrist -6.999895 
rhand -16.232788 0.387312 
rfingers 0.000000 
rthumb 9.975566 -29.356308 
lclavicle 0.000000 0.000000 
lhumerus -59.343519 56.281349 38.049792 
lradius 17.857605 
lwrist -61.780700 
lhand -10.776847 -10.267663 
lfingers 0.000000 
lthumb 15.235455 19.151190 
rfemur 7.563128 6.304254 32.065862 
rtibia 27.406899 
rfoot -8.950936 -4.140236 
rtoes 19.811345 
lfemur -21.468215 -11.568968 -16.915522 
ltibia 33.546965 
lfoot -13.682138 3.447745 
ltoes -7.289397 
88
root -9.603153 16.247218 -16.854474 -10.630633 -26.318136 9.773248
lowerback 3.460417 4.257777 -1.346500 
upperback 6.175956 5.988840 -0.815600 
thorax 4.404251 3.070509 -0.059935 
lowerneck -11.114236 -9.842285 -12.023798 
upperneck 22.861420 -13.579782 12.117386 
head 10.893217 -5.760425 4.539784 
rclavicle 0.000000 0.000000 
rhumerus -32.509088 -19.763884 -84.316153 
rradius 48.705855 
rwrist -6.951996 
rhand -16.251914 0.450894 
rfingers 0.000000 
rthumb 9.957113 -29.293594 
lclavicle 0.000000 0.000000 
lhumerus -60.608281 56.270676 36.751458 
lradius 17.819919 
lwrist -61.888436 
lhand -10.692599 -10.339022 
lfingers 0.000000 
lthumb 15.316602 19.073681 
rfemur 8.083757 6.542066 31.993952 
rtibia 26.986255 
rfoot -8.840713 -4.020687 
rtoes 21.466303 
lfemur -21.448917 -11.228925 -17.129553 
ltibia 31.994441 
lfoot -13.106233 3.217637 
ltoes -7.365151 
89
root -9.637271 16.253999 -16.772637 -10.519811 -26.781527 9.772244
lowerback 3.337154 4.332759 -1.255538 
upperback 6.127212 6.084347 -0.817203 
thorax 4.431042 3.118780 -0.102926 
lowerneck -11.177930 -9.797934 -12.003212 
upperneck 22.904846 -13.511309 12.080589 
head 10.907184 -5.728622 4.532667 
rclavicle 0.000000 0.000000 
rhumerus -32.405872 -19.597908 -84.412506 
rradius 48.815867 
rwrist -7.028879 
rhand -16.251604 0.439472 
rfingers 0.000000 
rthumb 9.957410 -29.305007 
lclavicle 0.000000 0.000000 
lhumerus -61.937710 56.247998 35.371342 
lradius 17.776133 
lwrist -62.015996 
lhand -10.999825 -10.229787 
lfingers 0.000000 
lthumb 15.020657 19.205207 
rfemur 8.549781 6.769380 32.028866 
rtibia 26.558755 
rfoot -8.623461 -3.913401 
rtoes 22.304107 
lfemur -21.487918 -10.857585 -17.220920 
ltibia 30.499464 
lfoot -12.580643 2.942398 
ltoes -7.339004 
90
root -9.671345 16.260043 -16.690371 -10.394970 -27.263063 9.755774
lowerback 3.160541 4.408797 -1.203522 
upperback 6.100102 6.180177 -0.761359 
thorax 4.500682 3.163329 -0.059606 
lowerneck -11.218818 -9.750938 -12.062923 
upperneck 22.911960 -13.420473 12.030934 
head 10.905271 -5.698289 4.537219 
rclavicle 0.000000 0.000000 
rhumerus -32.303941 -19.366672 -84.443023 
rradius 49.058990 
rwrist -7.470275 
rhand -16.124321 0.266638 
rfingers 0.000000 
rthumb 10.080191 -29.471921 
lclavicle 0.000000 0.000000 
lhumerus -63.302238 56.251866 34.066234 
lradius 17.784303 
lwrist -62.100613 
lhand -11.240355 -10.051064 
lfingers 0.000000 
lthumb 14.788932 19.401192 
rfemur 8.978063 6.905342 32.056661 
rtibia 26.136505 
rfoot -8.251066 -3.890955 
rtoes 21.553822 
lfemur -21.544712 -10.329834 -17.323643 
ltibia 29.064322 
lfoot -11.930797 2.605071 
ltoes -7.032513 
91
root -9.706253 16.267310 -16.608183 -10.254209 -27.738122 9.679772
lowerback 2.997352 4.493273 -1.064735 
upperback 6.075136 6.287920 -0.712989 
thorax 4.574889 3.218090 -0.071836 
lowerneck -11.187522 -9.729759 -12.120555 
upperneck 22.870308 -13.375294 12.008815 
head 10.879976 -5.689383 4.545786 
rclavicle 0.000000 0.000000 
rhumerus -32.204400 -19.188184 -84.479752 
rradius 49.257040 
rwrist -7.818463 
rhand -16.043222 0.201162 
rfingers 0.000000 
rthumb 10.158436 -29.533594 
lclavicle 0.000000 0.000000 
lhumerus -64.470554 56.165935 32.958025 
lradius 17.801475 
lwrist -62.141326 
lhand -11.320400 -9.896351 
lfingers 0.000000 
lthumb 14.711802 19.561577 
rfemur 9.405592 7.034439 32.164218 
rtibia 25.707304 
rfoot -7.803745 -4.008395 
rtoes 19.494589 
lfemur -21.612310 -9.635579 -17.417470 
ltibia 27.703380 
lfoot -11.150190 2.163668 
ltoes -6.564236 
92
root -9.741895 16.272931 -16.525766 -10.167571 -28.152340 9.668766
lowerback 2.897447 4.552904 -0.968915 
upperback 6.038181 6.362815 -0.701998 
thorax 4.601077 3.256571 -0.105069 
lowerneck -11.251693 -9.701738 -12.074587 
upperneck 22.927200 -13.312741 11.873919 
head 10.889905 -5.668936 4.497270 
rclavicle 0.000000 0.000000 
rhumerus -32.136586 -18.926934 -84.564006 
rradius 49.381735 
rwrist -7.930908 
rhand -16.132679 0.203151 
rfingers 0.000000 
rthumb 10.072113 -29.535807 
lclavicle 0.000000 0.000000 
lhumerus -65.676541 56.078443 31.771373 
lradius 17.797701 
lwrist -62.300017 
lhand -11.196416 -9.898218 
lfingers 0.000000 
lthumb 14.831278 19.550841 
rfemur 9.881468 7.170604 32.203003 
rtibia 25.257195 
rfoot -7.399625 -4.061479 
rtoes 17.967816 
lfemur -21.680747 -8.955789 -17.635817 
ltibia 26.400992 
lfoot -10.356434 1.770352 
ltoes -6.843531 
93
root -9.778887 16.277708 -16.441901 -10.053544 -28.598267 9.625257
lowerback 2.772049 4.634028 -0.811849 
upperback 5.996231 6.467480 -0.719933 
thorax 4.647057 3.313102 -0.198296 
lowerneck -11.246525 -9.671031 -12.052814 
upperneck 22.911436 -13.274521 11.874540 
head 10.875803 -5.650845 4.500135 
rclavicle 0.000000 0.000000 
rhumerus -32.087107 -18.799475 -84.684798 
rradius 49.494178 
rwrist -7.802785 
rhand -16.185805 0.169920 
rfingers 0.000000 
rthumb 10.020882 -29.571516 
lclavicle 0.000000 0.000000 
lhumerus -66.846521 56.012946 30.505162 
lradius 17.761602 
lwrist -62.505582 
lhand -10.864256 -10.086444 
lfingers 0.000000 
lthumb 15.151302 19.338934 
rfemur 10.379790 7.369960 32.252161 
rtibia 24.793762 
rfoot -7.065692 -3.911257 
rtoes 18.545243 
lfemur -21.756125 -8.311723 -17.810149 
ltibia 25.177423 
lfoot -9.660528 1.341133 
ltoes -7.329704 
